# Blender 5.0.1
# www.blender.org
mtllib area.mtl
o Plane
v 0.000000 0.000000 0.000000
v 10.000000 0.000000 0.000000
v 0.000000 10.000000 0.000000
v 10.000000 10.000000 0.000000
v 6.000000 0.000000 0.200000
v 6.000000 10.000000 0.200000
v 8.000000 0.000000 0.200000
v 8.000000 10.000000 0.200000
v 5.700000 10.000000 0.000000
v 5.700000 0.000000 0.000000
v 8.300000 0.000000 0.000000
v 8.300000 10.000000 0.000000
v 0.000000 0.000000 0.000000
v 10.000000 0.000000 0.000000
v 0.000000 10.000000 0.000000
v 10.000000 10.000000 0.000000
v 6.000000 0.000000 0.200000
v 6.000000 10.000000 0.200000
v 8.000000 0.000000 0.200000
v 8.000000 10.000000 0.200000
v 5.700000 10.000000 0.000000
v 5.700000 0.000000 0.000000
v 8.300000 0.000000 0.000000
v 8.300000 10.000000 0.000000
v 0.000000 0.000000 2.000000
v 10.000000 0.000000 2.000000
v 0.000000 10.000000 2.000000
v 10.000000 10.000000 2.000000
v 6.000000 0.000000 2.000000
v 6.000000 10.000000 2.000000
v 8.000000 0.000000 2.000000
v 8.000000 10.000000 2.000000
v 5.700000 10.000000 2.000000
v 5.700000 0.000000 2.000000
v 8.300000 0.000000 2.000000
v 8.300000 10.000000 2.000000
vn -0.0000 -0.0000 1.0000
vn -0.5547 -0.0000 0.8321
vn 0.5547 -0.0000 0.8321
vn 1.0000 -0.0000 -0.0000
vn -0.0000 1.0000 -0.0000
vn -0.0000 -1.0000 -0.0000
vn -1.0000 -0.0000 -0.0000
vt 2.000000 0.000000
vt 1.660000 2.000000
vt 1.660000 0.000000
vt 0.125000 0.000000
vt 0.000000 2.000000
vt 0.000000 0.000000
vt 0.773438 0.000000
vt 0.125000 2.000000
vt 1.140000 0.000000
vt 0.882812 0.000000
vt 0.773438 2.000000
vt 3.728586 0.000000
vt 0.000000 0.714844
vt 1.414062 0.070312
vt 0.703125 0.714844
vt 0.703125 0.070312
vt 3.517084 0.001459
vt 2.918719 0.714844
vt 2.918719 0.001459
vt 1.511719 0.714844
vt 1.414062 0.714844
vt 3.523438 0.000000
vt 1.511719 0.000000
vt 0.597656 0.000000
vt 2.816559 0.067134
vt 2.816559 0.714844
vt 2.108738 0.714844
vt 2.108738 0.067133
vt 3.218750 0.000000
vt 0.597656 0.714844
vt 2.006578 0.001459
vt -0.000133 0.714843
vt -0.000133 0.001459
vt 2.006578 0.714844
vt 2.000000 2.000000
vt 1.140000 2.000000
vt 0.882812 2.000000
vt 3.728586 0.714844
vt 3.517084 0.714844
vt 3.523438 0.714844
vt 3.218750 0.714844
s 0
usemtl concrete2
f 2/1/1 12/2/1 11/3/1
f 10/9/1 3/5/1 1/6/1
f 2/1/1 4/35/1 12/2/1
f 10/9/1 9/36/1 3/5/1
usemtl planks1
f 5/4/2 9/5/2 10/6/2
f 7/7/1 6/8/1 5/4/1
f 11/10/3 8/11/3 7/7/3
f 5/4/2 6/8/2 9/5/2
f 7/7/1 8/11/1 6/8/1
f 11/10/3 12/37/3 8/11/3
usemtl brick
f 15/12/4 25/13/4 13/6/4
f 17/14/5 31/15/5 19/16/5
f 16/17/6 36/18/6 24/19/6
f 17/14/5 34/20/5 29/21/5
f 13/22/5 34/20/5 22/23/5
f 23/24/5 26/13/5 14/6/5
f 20/25/6 36/18/6 32/26/6
f 20/25/6 30/27/6 18/28/6
f 14/29/7 28/13/7 16/6/7
f 19/16/5 35/30/5 23/24/5
f 21/31/6 27/32/6 15/33/6
f 18/28/6 33/34/6 21/31/6
f 15/12/4 27/38/4 25/13/4
f 17/14/5 29/21/5 31/15/5
f 16/17/6 28/39/6 36/18/6
f 17/14/5 22/23/5 34/20/5
f 13/22/5 25/40/5 34/20/5
f 23/24/5 35/30/5 26/13/5
f 20/25/6 24/19/6 36/18/6
f 20/25/6 32/26/6 30/27/6
f 14/29/7 26/41/7 28/13/7
f 19/16/5 31/15/5 35/30/5
f 21/31/6 33/34/6 27/32/6
f 18/28/6 30/27/6 33/34/6
o Text
v 5.565724 9.895740 2.916334
v 5.312724 9.895740 2.594334
v 5.312724 9.895740 2.234334
v 5.214724 9.895740 2.234334
v 5.214724 9.895740 2.595334
v 4.961724 9.895740 2.916334
v 5.079724 9.895740 2.916334
v 5.262724 9.895740 2.681334
v 5.447724 9.895740 2.916334
v 4.710724 9.895740 2.628334
v 4.905724 9.895740 2.628334
v 4.905724 9.895740 2.546334
v 4.710724 9.895740 2.546334
v 4.710724 9.895740 2.351334
v 4.628724 9.895740 2.351334
v 4.628724 9.895740 2.546334
v 4.433724 9.895740 2.546334
v 4.433724 9.895740 2.628334
v 4.628724 9.895740 2.628334
v 4.628724 9.895740 2.823334
v 4.710724 9.895740 2.823334
v 5.565724 9.975739 2.916334
v 5.312724 9.975739 2.594334
v 5.312724 9.975739 2.234334
v 5.214724 9.975739 2.234334
v 5.214724 9.975739 2.595334
v 4.961724 9.975739 2.916334
v 5.079724 9.975739 2.916334
v 5.262724 9.975739 2.681334
v 5.447724 9.975739 2.916334
v 4.710724 9.975739 2.628334
v 4.905724 9.975739 2.628334
v 4.905724 9.975739 2.546334
v 4.710724 9.975739 2.546334
v 4.710724 9.975739 2.351334
v 4.628724 9.975739 2.351334
v 4.628724 9.975739 2.546334
v 4.433724 9.975739 2.546334
v 4.433724 9.975739 2.628334
v 4.628724 9.975739 2.628334
v 4.628724 9.975739 2.823334
v 4.710724 9.975739 2.823334
v 4.710724 9.975739 2.628334
v 4.710724 9.895740 2.628334
v 4.905724 9.975739 2.628334
v 4.905724 9.895740 2.628334
v 4.905724 9.975739 2.546334
v 4.905724 9.895740 2.546334
v 4.710724 9.975739 2.546334
v 4.710724 9.895740 2.546334
v 4.710724 9.975739 2.351334
v 4.710724 9.895740 2.351334
v 4.628724 9.975739 2.351334
v 4.628724 9.895740 2.351334
v 4.628724 9.975739 2.546334
v 4.628724 9.895740 2.546334
v 4.433724 9.975739 2.546334
v 4.433724 9.895740 2.546334
v 4.433724 9.975739 2.628334
v 4.433724 9.895740 2.628334
v 4.628724 9.975739 2.628334
v 4.628724 9.895740 2.628334
v 4.628724 9.975739 2.823334
v 4.628724 9.895740 2.823334
v 4.710724 9.975739 2.823334
v 4.710724 9.895740 2.823334
v 5.565724 9.975739 2.916334
v 5.565724 9.895740 2.916334
v 5.312724 9.975739 2.594334
v 5.312724 9.895740 2.594334
v 5.312724 9.975739 2.234334
v 5.312724 9.895740 2.234334
v 5.214724 9.975739 2.234334
v 5.214724 9.895740 2.234334
v 5.214724 9.975739 2.595334
v 5.214724 9.895740 2.595334
v 4.961724 9.975739 2.916334
v 4.961724 9.895740 2.916334
v 5.079724 9.975739 2.916334
v 5.079724 9.895740 2.916334
v 5.262724 9.975739 2.681334
v 5.262724 9.895740 2.681334
v 5.447724 9.975739 2.916334
v 5.447724 9.895740 2.916334
vn -0.0000 -1.0000 -0.0000
vn -0.0000 1.0000 -0.0000
vn -0.0000 -0.0000 1.0000
vn 1.0000 -0.0000 -0.0000
vn -0.0000 -0.0000 -1.0000
vn -1.0000 -0.0000 -0.0000
vn 0.7863 -0.0000 -0.6178
vn -0.7854 -0.0000 -0.6190
vn 0.7890 -0.0000 0.6144
vn -0.7857 -0.0000 0.6186
vt 0.452545 1.154031
vt 0.304309 1.506501
vt 0.174741 1.506501
vt 0.505251 1.248462
vt 0.837956 1.506501
vt 0.708388 1.506501
vt 0.560153 1.152933
vt 0.452545 0.757639
vt 0.560153 0.757639
vt 0.944810 0.241104
vt 0.855160 0.027910
vt 0.944810 0.027910
vt 0.855159 0.241104
vt 1.158004 0.330755
vt 1.158004 0.241104
vt 0.641966 0.241104
vt 0.641966 0.330754
vt 0.944815 0.332938
vt 0.945897 0.546147
vt 0.855158 0.333393
vt 0.856240 0.546602
vt 0.560152 0.405169
vt 0.837956 0.757639
vt 0.708387 0.757639
vt 0.507446 0.499600
vt 0.304309 0.757639
vt 0.174741 0.757639
vt 0.452545 0.404071
vt 0.560152 0.008777
vt 0.452545 0.008777
vt 1.250940 0.547231
vt 1.464134 0.547231
vt 1.464134 0.636882
vt 1.250940 0.636882
vt 1.161289 0.334037
vt 1.250940 0.334037
vt 1.250940 0.850077
vt 1.161289 0.850077
vt 1.159106 0.547230
vt 0.945897 0.546147
vt 1.158650 0.636887
vt 0.945442 0.635804
vt 0.086898 1.867755
vt 0.174741 2.081872
vt 0.086898 2.081872
vt 0.086898 1.777716
vt 0.174741 1.867755
vt 0.086898 1.563599
vt 0.174741 1.777716
vt 0.086898 1.349481
vt 0.174741 1.563599
vt 0.086897 1.259442
vt 0.174741 1.349481
vt 0.086897 1.045325
vt 0.174740 1.259442
vt 0.086897 0.831208
vt 0.174740 1.045325
vt 0.086897 0.741168
vt 0.174740 0.831208
vt 0.086897 0.527051
vt 0.174740 0.741168
vt 0.086897 0.312934
vt 0.174740 0.527051
vt 0.086897 0.222894
vt 0.174740 0.312933
vt 0.086897 0.008777
vt 0.174740 0.222894
vt 0.086897 0.916399
vt -0.000946 0.466749
vt 0.086897 0.466749
vt 0.086897 1.311693
vt -0.000947 0.916399
vt 0.086896 1.419301
vt -0.000947 1.311693
vt 0.086897 1.815692
vt -0.000947 1.419301
vt 0.086896 2.264480
vt -0.000947 1.815692
vt 0.086896 2.394048
vt -0.000947 2.264480
vt 0.086896 2.721098
vt -0.000947 2.394048
vt 0.086897 0.337180
vt -0.000946 0.008777
vt 0.086897 0.008777
vt -0.000947 0.337180
vt 0.174740 0.008777
vt -0.000947 2.721098
s 0
usemtl 256wall
f 41/42/8 43/43/8 42/44/8
f 41/42/8 44/45/8 43/43/8
f 44/45/8 37/46/8 45/47/8
f 44/45/8 38/48/8 37/46/8
f 41/42/8 38/48/8 44/45/8
f 40/49/8 38/48/8 41/42/8
f 40/49/8 39/50/8 38/48/8
f 55/51/8 57/52/8 56/53/8
f 55/51/8 46/54/8 57/52/8
f 53/55/8 55/51/8 54/56/8
f 53/55/8 46/54/8 55/51/8
f 53/55/8 47/57/8 46/54/8
f 53/55/8 48/58/8 47/57/8
f 52/59/8 48/58/8 53/55/8
f 51/60/8 49/61/8 52/59/8
f 49/61/8 48/58/8 52/59/8
f 51/60/8 50/62/8 49/61/8
f 62/63/9 63/64/9 64/65/9
f 62/63/9 64/65/9 65/66/9
f 65/66/9 66/67/9 58/68/9
f 65/66/9 58/68/9 59/69/9
f 62/63/9 65/66/9 59/69/9
f 61/70/9 62/63/9 59/69/9
f 61/70/9 59/69/9 60/71/9
f 76/72/9 77/73/9 78/74/9
f 76/72/9 78/74/9 67/75/9
f 74/76/9 75/77/9 76/72/9
f 74/76/9 76/72/9 67/75/9
f 74/76/9 67/75/9 68/78/9
f 74/76/9 68/78/9 69/79/9
f 73/80/8 74/76/8 69/79/8
f 72/81/9 73/80/9 70/82/9
f 70/82/8 73/80/8 69/79/8
f 72/81/9 70/82/9 71/83/9
f 82/84/10 79/85/10 80/86/10
f 84/87/11 81/88/11 82/84/11
f 86/89/12 83/90/12 84/87/12
f 88/91/11 85/92/11 86/89/11
f 90/93/12 87/94/12 88/91/12
f 92/95/13 89/96/13 90/93/13
f 94/97/12 91/98/12 92/95/12
f 96/99/13 93/100/13 94/97/13
f 98/101/10 95/102/10 96/99/10
f 100/103/13 97/104/13 98/101/13
f 102/105/10 99/106/10 100/103/10
f 80/107/11 101/108/11 102/105/11
f 106/109/14 103/110/14 104/111/14
f 108/112/11 105/113/11 106/109/11
f 110/114/12 107/115/12 108/112/12
f 112/116/13 109/117/13 110/114/13
f 114/118/15 111/119/15 112/116/15
f 116/120/10 113/121/10 114/118/10
f 118/122/16 115/123/16 116/120/16
f 120/124/17 117/125/17 118/126/17
f 104/111/10 119/127/10 120/124/10
f 82/84/10 81/88/10 79/85/10
f 84/87/11 83/90/11 81/88/11
f 86/89/12 85/92/12 83/90/12
f 88/91/11 87/94/11 85/92/11
f 90/93/12 89/96/12 87/94/12
f 92/95/13 91/98/13 89/96/13
f 94/97/12 93/100/12 91/98/12
f 96/99/13 95/102/13 93/100/13
f 98/101/10 97/104/10 95/102/10
f 100/103/13 99/106/13 97/104/13
f 102/105/10 101/108/10 99/106/10
f 80/107/11 79/128/11 101/108/11
f 106/109/14 105/113/14 103/110/14
f 108/112/11 107/115/11 105/113/11
f 110/114/12 109/117/12 107/115/12
f 112/116/13 111/119/13 109/117/13
f 114/118/15 113/121/15 111/119/15
f 116/120/10 115/123/10 113/121/10
f 118/122/16 117/129/16 115/123/16
f 120/124/17 119/127/17 117/125/17
f 104/111/10 103/110/10 119/127/10
o Text.001
v 9.860497 4.370975 2.234334
v 9.860497 4.488975 2.234334
v 9.860497 4.720975 2.516334
v 9.860497 4.955975 2.234334
v 9.860497 5.074975 2.234334
v 9.860497 4.780975 2.587334
v 9.860497 5.053975 2.916334
v 9.860497 4.934975 2.916334
v 9.860497 4.720975 2.656334
v 9.860497 4.507975 2.916334
v 9.860497 4.389975 2.916334
v 9.860497 4.661975 2.587334
v 9.860497 5.327975 2.628334
v 9.860497 5.132975 2.628334
v 9.860497 5.132975 2.546334
v 9.860497 5.327975 2.546334
v 9.860497 5.327975 2.351334
v 9.860497 5.409975 2.351334
v 9.860497 5.409975 2.546334
v 9.860497 5.604975 2.546334
v 9.860497 5.604975 2.628334
v 9.860497 5.409975 2.628334
v 9.860497 5.409975 2.823334
v 9.860497 5.327975 2.823334
v 9.940497 4.370975 2.234334
v 9.940497 4.488975 2.234334
v 9.940497 4.720975 2.516334
v 9.940497 4.955975 2.234334
v 9.940497 5.074975 2.234334
v 9.940497 4.780975 2.587334
v 9.940497 5.053975 2.916334
v 9.940497 4.934975 2.916334
v 9.940497 4.720975 2.656334
v 9.940497 4.507975 2.916334
v 9.940497 4.389975 2.916334
v 9.940497 4.661975 2.587334
v 9.940497 5.327975 2.628334
v 9.940497 5.132975 2.628334
v 9.940497 5.132975 2.546334
v 9.940497 5.327975 2.546334
v 9.940497 5.327975 2.351334
v 9.940497 5.409975 2.351334
v 9.940497 5.409975 2.546334
v 9.940497 5.604975 2.546334
v 9.940497 5.604975 2.628334
v 9.940497 5.409975 2.628334
v 9.940497 5.409975 2.823334
v 9.940497 5.327975 2.823334
v 9.940497 5.327975 2.628334
v 9.860497 5.327975 2.628334
v 9.940497 5.132975 2.628334
v 9.860497 5.132975 2.628334
v 9.940497 5.132975 2.546334
v 9.860497 5.132975 2.546334
v 9.940497 5.327975 2.546334
v 9.860497 5.327975 2.546334
v 9.940497 5.327975 2.351334
v 9.860497 5.327975 2.351334
v 9.940497 5.409975 2.351334
v 9.860497 5.409975 2.351334
v 9.940497 5.409975 2.546334
v 9.860497 5.409975 2.546334
v 9.940497 5.604975 2.546334
v 9.860497 5.604975 2.546334
v 9.940497 5.604975 2.628334
v 9.860497 5.604975 2.628334
v 9.940497 5.409975 2.628334
v 9.860497 5.409975 2.628334
v 9.940497 5.409975 2.823334
v 9.860497 5.409975 2.823334
v 9.940497 5.327975 2.823334
v 9.860497 5.327975 2.823334
v 9.940497 4.370975 2.234334
v 9.860497 4.370975 2.234334
v 9.940497 4.488975 2.234334
v 9.860497 4.488975 2.234334
v 9.940497 4.720975 2.516334
v 9.860497 4.720975 2.516334
v 9.940497 4.955975 2.234334
v 9.860497 4.955975 2.234334
v 9.940497 5.074975 2.234334
v 9.860497 5.074975 2.234334
v 9.940497 4.780975 2.587334
v 9.860497 4.780975 2.587334
v 9.940497 5.053975 2.916334
v 9.860497 5.053975 2.916334
v 9.940497 4.934975 2.916334
v 9.860497 4.934975 2.916334
v 9.940497 4.720975 2.656334
v 9.860497 4.720975 2.656334
v 9.940497 4.507975 2.916334
v 9.860497 4.507975 2.916334
v 9.940497 4.389975 2.916334
v 9.860497 4.389975 2.916334
v 9.940497 4.661975 2.587334
v 9.860497 4.661975 2.587334
vn -1.0000 -0.0000 -0.0000
vn 1.0000 -0.0000 -0.0000
vn -0.0000 -0.0000 1.0000
vn -0.0000 -1.0000 -0.0000
vn -0.0000 -0.0000 -1.0000
vn -0.0000 1.0000 -0.0000
vn -0.0000 0.7722 -0.6353
vn -0.0000 -0.7682 -0.6402
vn -0.0000 0.7684 0.6400
vn -0.0000 0.7696 -0.6386
vn -0.0000 -0.7721 0.6355
vn -0.0000 0.7736 0.6337
vn -0.0000 -0.7707 -0.6372
vn -0.0000 -0.7716 0.6361
vt 0.744719 0.614267
vt 0.006019 0.268492
vt 0.006019 0.001303
vt 0.589794 0.748984
vt 0.006020 1.492174
vt 0.006019 1.227230
vt 0.744719 0.881456
vt 1.537305 -0.045848
vt 0.904134 0.748984
vt 1.537305 1.534834
vt 1.537305 0.221341
vt 1.537305 1.269890
vt 0.504230 0.748284
vt 0.751289 1.335800
vt 0.504230 1.335800
vt 0.751289 0.748284
vt -0.083287 0.501225
vt -0.083287 0.748284
vt 1.338805 0.748284
vt 1.338805 0.501225
vt 1.161520 2.105509
vt 0.726786 1.664460
vt 1.472929 2.410604
vt 0.504230 -0.086291
vt 0.751289 0.501225
vt 0.504230 0.501225
vt 1.031226 1.976532
vt 0.751289 -0.086291
vt 2.329892 0.614267
vt 3.068592 0.001304
vt 3.068592 0.268493
vt 2.484817 0.748984
vt 3.068592 1.227231
vt 3.068592 1.492175
vt 2.329891 0.881457
vt 1.537305 -0.045848
vt 2.170477 0.748985
vt 1.537307 1.534833
vt 1.537305 0.221341
vt 1.537307 1.269890
vt 2.172345 1.977464
vt 2.480603 2.285722
vt 2.350976 2.415349
vt 2.042718 2.107091
vt 2.350976 1.539579
vt 2.480603 1.669206
vt 1.734460 2.415349
vt 1.604833 2.285723
vt 2.039563 1.844678
vt 1.732849 1.534834
vt 1.909270 1.973655
vt 1.602556 1.663811
vt 0.724511 2.415353
vt 0.904134 2.853184
vt 0.724511 2.853184
vt 0.365265 2.746127
vt 0.185642 2.562013
vt 0.365265 2.562013
vt 1.083757 2.853184
vt 0.904134 2.415353
vt 1.083757 2.415353
vt 2.121357 2.853179
vt 1.941734 2.415349
vt 2.121357 2.415349
vt 0.544888 2.862957
vt 0.365265 2.678844
vt 0.544888 2.678844
vt 2.660226 2.796869
vt 2.480603 2.359038
vt 2.660226 2.359038
vt 2.300980 2.853180
vt 2.121357 2.415349
vt 2.300980 2.415349
vt 0.365265 2.494730
vt 2.480603 2.853180
vt 2.300980 2.415349
vt 2.480603 2.415349
vt 2.660226 2.354742
vt 2.839849 2.792573
vt 2.660226 2.792573
vt 0.006019 2.566310
vt 0.185642 2.750423
vt 0.006019 2.750423
vt 1.941734 2.853180
vt 1.762111 2.415349
vt 1.941734 2.415349
vt 0.724511 2.758242
vt 0.544888 2.493298
vt 0.724511 2.493298
vt 2.660226 1.534834
vt 2.839849 2.354742
vt 2.660226 2.359038
vt 2.480603 1.534834
vt 1.263380 2.682543
vt 1.263380 2.415353
vt 0.006019 1.534834
vt 0.185642 2.566310
vt 0.365265 1.534834
vt 0.544888 2.494730
vt 0.365265 2.494730
vt 1.443003 2.682543
vt 1.263380 2.682542
vt 3.019472 2.290918
vt 2.839849 1.534834
vt 3.019472 1.534834
vt 2.839849 2.290919
vt 3.019472 3.045579
vt 2.839849 3.045579
vt 1.443003 2.415353
vt 1.622626 2.680298
vt 1.443004 2.680298
vt 0.724511 2.493298
vt 0.544888 1.534834
vt 0.724511 1.534834
vt 0.185642 1.534834
vt 0.365265 1.534834
vt 0.904134 2.415353
vt 0.185642 2.746127
vt 1.941734 2.853179
vt 0.365265 2.862957
vt 2.480603 2.796869
vt 2.121357 2.853180
vt 0.544888 2.494730
vt 2.300980 2.853180
vt 2.839849 2.354742
vt 0.185642 2.566310
vt 1.762111 2.853180
vt 0.544888 2.758242
vt 2.839849 1.534834
vt 2.480603 2.359038
vt 1.083757 2.682543
vt 0.185642 1.534834
vt 0.544888 1.534834
vt 2.839849 2.290919
vt 3.019472 2.290919
vt 1.622626 2.415353
vt 0.544888 2.493298
s 0
usemtl 256wall
f 126/130/18 128/131/18 127/132/18
f 126/130/18 129/133/18 128/131/18
f 129/133/18 131/134/18 130/135/18
f 129/133/18 132/136/18 131/134/18
f 126/130/18 132/136/18 129/133/18
f 125/137/18 132/136/18 126/130/18
f 125/137/18 123/138/18 132/136/18
f 123/138/18 121/139/18 132/136/18
f 125/137/18 124/140/18 123/138/18
f 122/141/18 121/139/18 123/138/18
f 142/142/18 144/143/18 143/144/18
f 142/142/18 133/145/18 144/143/18
f 140/146/18 142/142/18 141/147/18
f 140/146/18 133/145/18 142/142/18
f 140/146/18 134/148/18 133/145/18
f 140/146/18 135/149/18 134/148/18
f 139/150/18 135/151/18 140/152/18
f 138/153/18 136/154/18 139/155/18
f 136/156/18 135/151/18 139/150/18
f 138/153/18 137/157/18 136/154/18
f 150/158/19 151/159/19 152/160/19
f 150/158/19 152/160/19 153/161/19
f 153/161/19 154/162/19 155/163/19
f 153/161/19 155/163/19 156/164/19
f 150/158/19 153/161/19 156/164/19
f 149/165/19 150/158/19 156/164/19
f 149/165/19 156/164/19 147/166/19
f 147/166/19 156/164/19 145/167/19
f 149/165/19 147/166/19 148/168/19
f 146/169/19 147/166/19 145/167/19
f 166/170/19 167/171/19 168/172/19
f 166/170/19 168/172/19 157/173/19
f 164/174/19 165/175/19 166/170/19
f 164/174/19 166/170/19 157/173/19
f 164/174/19 157/173/19 158/176/19
f 164/174/19 158/176/19 159/177/19
f 163/178/18 164/174/18 159/177/18
f 162/179/19 163/178/19 160/180/19
f 160/180/18 163/178/18 159/177/18
f 162/179/19 160/180/19 161/181/19
f 172/182/20 169/183/20 170/184/20
f 174/185/21 171/186/21 172/187/21
f 176/188/22 173/189/22 174/190/22
f 178/191/21 175/192/21 176/193/21
f 180/194/22 177/195/22 178/196/22
f 182/197/23 179/198/23 180/199/23
f 184/200/22 181/201/22 182/202/22
f 186/203/23 183/196/23 184/195/23
f 188/204/20 185/205/20 186/206/20
f 190/207/23 187/208/23 188/209/23
f 192/210/20 189/211/20 190/212/20
f 170/213/21 191/214/21 192/215/21
f 196/216/22 193/217/22 194/218/22
f 198/219/24 195/220/24 196/207/24
f 200/221/25 197/222/25 198/219/25
f 202/223/22 199/190/22 200/224/22
f 204/225/26 201/226/26 202/210/26
f 206/227/27 203/228/27 204/229/27
f 208/224/20 205/230/20 206/231/20
f 210/232/28 207/233/28 208/234/28
f 212/235/29 209/236/29 210/237/29
f 214/238/20 211/239/20 212/240/20
f 216/241/30 213/242/30 214/243/30
f 194/187/31 215/244/31 216/245/31
f 172/182/20 171/246/20 169/183/20
f 174/185/21 173/247/21 171/186/21
f 176/188/22 175/183/22 173/189/22
f 178/191/21 177/248/21 175/192/21
f 180/194/22 179/249/22 177/195/22
f 182/197/23 181/250/23 179/198/23
f 184/200/22 183/251/22 181/201/22
f 186/203/23 185/252/23 183/196/23
f 188/204/20 187/253/20 185/205/20
f 190/207/23 189/254/23 187/208/23
f 192/210/20 191/255/20 189/211/20
f 170/213/21 169/256/21 191/214/21
f 196/216/22 195/257/22 193/217/22
f 198/219/24 197/258/24 195/220/24
f 200/221/25 199/259/25 197/222/25
f 202/223/22 201/260/22 199/190/22
f 204/225/26 203/261/26 201/226/26
f 206/227/27 205/262/27 203/228/27
f 208/224/20 207/238/20 205/230/20
f 210/232/28 209/263/28 207/233/28
f 212/235/29 211/264/29 209/236/29
f 214/238/20 213/265/20 211/239/20
f 216/241/30 215/266/30 213/242/30
f 194/187/31 193/186/31 215/244/31
